<svg width="419" height="185" viewBox="0 0 419 185" fill="none" xmlns="http://www.w3.org/2000/svg">
<g opacity="0.88" filter="url(#filter0_d_95_47)">
<path d="M80.0892 84.9621L34.0162 63.4781L80.0998 41.9878C83.479 40.4121 84.9408 36.3959 83.3651 33.0166L80.5132 26.8995C78.9375 23.5202 74.9212 22.0584 71.542 23.6341L6.89812 53.7792C5.73368 54.3223 4.74837 55.1864 4.05788 56.2699C3.36739 57.3535 3.0004 58.6116 3 59.8964V67.1189C3 69.743 4.52086 72.1287 6.89812 73.2361L71.5104 103.364C74.898 104.944 78.9248 103.478 80.5048 100.091L83.3651 93.9565C84.945 90.5688 83.479 86.542 80.0892 84.9621Z" fill="#0029BC"/>
</g>
<g opacity="0.88" filter="url(#filter1_d_95_47)">
<path d="M335.19 42.1147L380.81 64.5457L334.292 85.0796C330.881 86.5852 329.337 90.5704 330.842 93.9815L333.567 100.156C335.073 103.567 339.058 105.112 342.469 103.606L407.722 74.8026C408.897 74.2837 409.9 73.4402 410.613 72.3711C411.326 71.3021 411.719 70.0519 411.746 68.7673L411.895 61.5463C411.949 58.9228 410.478 56.5062 408.124 55.3499L344.148 23.8936C340.793 22.2441 336.737 23.6266 335.088 26.9809L332.101 33.0546C330.452 36.4089 331.834 40.4651 335.19 42.1147Z" fill="#0029BC"/>
</g>
<g opacity="0.88" filter="url(#filter2_d_95_47)">
<path d="M114.653 46L120.449 11.0909H125.716L122.972 27.7614H123.398L140.784 11.0909H147.415L130.761 26.8068L141.67 46H135.33L126.67 30.4034L121.761 35.1591L119.92 46H114.653ZM155.413 46.5284C152.845 46.5284 150.72 45.9773 149.038 44.875C147.368 43.7614 146.197 42.1989 145.527 40.1875C144.857 38.1648 144.749 35.7955 145.203 33.0795C145.646 30.3977 146.538 28.0341 147.879 25.9886C149.22 23.9432 150.891 22.3466 152.891 21.1989C154.902 20.0511 157.124 19.4773 159.555 19.4773C161.033 19.4773 162.425 19.7216 163.732 20.2102C165.05 20.6989 166.169 21.4659 167.089 22.5114C168.01 23.5568 168.646 24.9148 168.999 26.5852C169.362 28.2443 169.351 30.2614 168.964 32.6364L168.675 34.4432H147.845L148.442 30.625H164.26C164.499 29.2841 164.436 28.0966 164.072 27.0625C163.709 26.017 163.084 25.1932 162.197 24.5909C161.322 23.9886 160.22 23.6875 158.891 23.6875C157.527 23.6875 156.254 24.0455 155.072 24.7614C153.891 25.4773 152.902 26.392 152.107 27.5057C151.322 28.608 150.828 29.7443 150.624 30.9148L150.027 34.4091C149.732 36.3182 149.783 37.8523 150.18 39.0114C150.589 40.1705 151.305 41.0114 152.328 41.5341C153.351 42.0568 154.629 42.3182 156.163 42.3182C157.152 42.3182 158.067 42.1818 158.908 41.9091C159.76 41.625 160.516 41.2102 161.175 40.6648C161.834 40.108 162.385 39.4148 162.828 38.5852L167.499 39.4545C166.874 40.875 165.976 42.1193 164.805 43.1875C163.635 44.2443 162.254 45.0682 160.663 45.6591C159.084 46.2386 157.334 46.5284 155.413 46.5284ZM195.389 26.2102L190.634 27.0284C190.531 26.4261 190.321 25.858 190.003 25.3239C189.696 24.7898 189.224 24.358 188.588 24.0284C187.952 23.6875 187.105 23.517 186.048 23.517C184.582 23.517 183.298 23.8523 182.196 24.5227C181.105 25.1932 180.48 26.0455 180.321 27.0795C180.173 27.9205 180.372 28.6023 180.918 29.125C181.463 29.6364 182.423 30.0625 183.798 30.4034L187.821 31.358C190.139 31.9148 191.798 32.7841 192.798 33.9659C193.81 35.1364 194.162 36.6591 193.855 38.5341C193.594 40.0909 192.912 41.4716 191.81 42.6761C190.719 43.8807 189.321 44.8239 187.616 45.5057C185.912 46.1875 184.014 46.5284 181.923 46.5284C178.946 46.5284 176.628 45.8977 174.969 44.6364C173.31 43.375 172.457 41.5909 172.412 39.2841L177.457 38.5341C177.548 39.8182 178.009 40.7898 178.838 41.4489C179.679 42.0966 180.844 42.4205 182.332 42.4205C184.037 42.4318 185.463 42.0739 186.611 41.3466C187.759 40.6193 188.412 39.7386 188.571 38.7045C188.707 37.8977 188.526 37.2273 188.026 36.6932C187.537 36.1591 186.673 35.75 185.435 35.4659L181.207 34.4943C178.844 33.9375 177.173 33.0398 176.196 31.8011C175.219 30.5625 174.889 29.0057 175.207 27.1307C175.457 25.5966 176.105 24.2614 177.151 23.125C178.207 21.9773 179.543 21.0852 181.156 20.4489C182.77 19.8011 184.554 19.4773 186.509 19.4773C189.361 19.4773 191.503 20.0909 192.935 21.3182C194.366 22.5341 195.185 24.1648 195.389 26.2102ZM205.868 30.4545L203.311 46H198.214L204.01 11.0909H209.038L206.891 24.0795H207.214C208.044 22.6591 209.158 21.5398 210.555 20.7216C211.964 19.892 213.692 19.4773 215.737 19.4773C217.533 19.4773 219.038 19.8466 220.254 20.5852C221.482 21.3239 222.345 22.4261 222.845 23.892C223.357 25.3466 223.436 27.1648 223.084 29.3466L220.288 46H215.192L217.851 29.9602C218.169 28.0398 217.919 26.5511 217.101 25.4943C216.283 24.4261 215.004 23.892 213.266 23.892C212.05 23.892 210.925 24.1477 209.891 24.6591C208.868 25.1705 208.004 25.9205 207.3 26.9091C206.595 27.8864 206.118 29.0682 205.868 30.4545ZM234.624 46.5795C232.964 46.5795 231.516 46.2727 230.277 45.6591C229.038 45.0341 228.124 44.1307 227.533 42.9489C226.942 41.767 226.788 40.3182 227.072 38.6023C227.322 37.125 227.811 35.9091 228.538 34.9545C229.277 34 230.175 33.2443 231.232 32.6875C232.288 32.1193 233.436 31.6932 234.675 31.4091C235.913 31.125 237.163 30.9148 238.425 30.7784C240.016 30.5966 241.305 30.4432 242.294 30.3182C243.294 30.1932 244.044 30 244.544 29.7386C245.044 29.4659 245.345 29.0227 245.447 28.4091V28.2898C245.686 26.8125 245.47 25.6648 244.8 24.8466C244.141 24.017 242.993 23.6023 241.357 23.6023C239.652 23.6023 238.22 23.9773 237.061 24.7273C235.913 25.4773 235.067 26.3182 234.521 27.25L229.953 26.1591C230.771 24.5682 231.811 23.2841 233.072 22.3068C234.345 21.3182 235.737 20.6023 237.249 20.1591C238.76 19.7045 240.305 19.4773 241.885 19.4773C242.93 19.4773 244.016 19.6023 245.141 19.8523C246.266 20.0909 247.288 20.5341 248.209 21.1818C249.141 21.8295 249.834 22.7557 250.288 23.9602C250.743 25.1534 250.811 26.7045 250.493 28.6136L247.612 46H242.635L243.249 42.4205H243.044C242.612 43.0795 242.01 43.7273 241.237 44.3636C240.476 45 239.544 45.5284 238.442 45.9489C237.339 46.3693 236.067 46.5795 234.624 46.5795ZM236.362 42.4886C237.783 42.4886 239.038 42.2102 240.129 41.6534C241.232 41.0966 242.124 40.3693 242.805 39.4716C243.487 38.5625 243.913 37.5909 244.084 36.5568L244.646 33.1818C244.43 33.3636 244.05 33.5284 243.504 33.6761C242.97 33.8239 242.368 33.9545 241.697 34.0682C241.027 34.1818 240.368 34.2784 239.72 34.358C239.084 34.4375 238.555 34.5114 238.135 34.5795C237.135 34.7045 236.197 34.9148 235.322 35.2102C234.459 35.5057 233.737 35.9318 233.158 36.4886C232.578 37.0341 232.214 37.7614 232.067 38.6705C231.862 39.9318 232.163 40.8864 232.97 41.5341C233.788 42.1705 234.919 42.4886 236.362 42.4886ZM280.224 19.8182L266.366 46H260.912L255.764 19.8182H261.031L264.304 39.9659H264.577L274.548 19.8182H280.224ZM148.625 69.0909L142.83 104H137.989L124.506 78.3977H124.199L119.92 104H114.653L120.449 69.0909H125.324L138.824 94.7273H139.148L143.409 69.0909H148.625ZM157.655 104.58C155.996 104.58 154.547 104.273 153.308 103.659C152.07 103.034 151.155 102.131 150.564 100.949C149.973 99.767 149.82 98.3182 150.104 96.6023C150.354 95.125 150.842 93.9091 151.57 92.9545C152.308 92 153.206 91.2443 154.263 90.6875C155.32 90.1193 156.467 89.6932 157.706 89.4091C158.945 89.125 160.195 88.9148 161.456 88.7784C163.047 88.5966 164.337 88.4432 165.325 88.3182C166.325 88.1932 167.075 88 167.575 87.7386C168.075 87.4659 168.376 87.0227 168.479 86.4091V86.2898C168.717 84.8125 168.501 83.6648 167.831 82.8466C167.172 82.017 166.024 81.6023 164.388 81.6023C162.683 81.6023 161.251 81.9773 160.092 82.7273C158.945 83.4773 158.098 84.3182 157.553 85.25L152.984 84.1591C153.803 82.5682 154.842 81.2841 156.104 80.3068C157.376 79.3182 158.768 78.6023 160.28 78.1591C161.791 77.7045 163.337 77.4773 164.916 77.4773C165.962 77.4773 167.047 77.6023 168.172 77.8523C169.297 78.0909 170.32 78.5341 171.24 79.1818C172.172 79.8295 172.865 80.7557 173.32 81.9602C173.774 83.1534 173.842 84.7045 173.524 86.6136L170.643 104H165.666L166.28 100.42H166.075C165.643 101.08 165.041 101.727 164.268 102.364C163.507 103 162.575 103.528 161.473 103.949C160.371 104.369 159.098 104.58 157.655 104.58ZM159.393 100.489C160.814 100.489 162.07 100.21 163.161 99.6534C164.263 99.0966 165.155 98.3693 165.837 97.4716C166.518 96.5625 166.945 95.5909 167.115 94.5568L167.678 91.1818C167.462 91.3636 167.081 91.5284 166.536 91.6761C166.001 91.8239 165.399 91.9545 164.729 92.0682C164.058 92.1818 163.399 92.2784 162.751 92.358C162.115 92.4375 161.587 92.5114 161.166 92.5795C160.166 92.7045 159.229 92.9148 158.354 93.2102C157.49 93.5057 156.768 93.9318 156.189 94.4886C155.609 95.0341 155.246 95.7614 155.098 96.6705C154.893 97.9318 155.195 98.8864 156.001 99.5341C156.82 100.17 157.95 100.489 159.393 100.489ZM186.773 114.364C184.682 114.364 182.932 114.091 181.523 113.545C180.125 113 179.023 112.278 178.216 111.381C177.42 110.483 176.869 109.5 176.562 108.432L181.267 106.625C181.494 107.125 181.813 107.653 182.222 108.21C182.631 108.778 183.239 109.261 184.045 109.659C184.864 110.057 185.983 110.256 187.403 110.256C189.335 110.256 191.023 109.784 192.466 108.841C193.909 107.909 194.801 106.42 195.142 104.375L195.943 99.2273H195.619C195.233 99.7841 194.699 100.403 194.017 101.085C193.335 101.767 192.455 102.358 191.375 102.858C190.295 103.358 188.955 103.608 187.352 103.608C185.284 103.608 183.5 103.125 182 102.159C180.511 101.182 179.443 99.7443 178.795 97.8466C178.148 95.9375 178.057 93.5909 178.523 90.8068C178.977 88.0227 179.841 85.6364 181.114 83.6477C182.398 81.6591 183.955 80.1364 185.784 79.0795C187.625 78.0114 189.597 77.4773 191.699 77.4773C193.324 77.4773 194.591 77.75 195.5 78.2955C196.42 78.8295 197.102 79.4545 197.545 80.1705C197.989 80.8864 198.313 81.517 198.517 82.0625H198.892L199.591 77.8182H204.585L200.153 104.58C199.79 106.83 198.966 108.676 197.682 110.119C196.409 111.563 194.824 112.631 192.926 113.324C191.04 114.017 188.989 114.364 186.773 114.364ZM189.091 99.3807C190.545 99.3807 191.841 99.0398 192.977 98.358C194.125 97.6648 195.08 96.6761 195.841 95.392C196.602 94.0966 197.131 92.5455 197.426 90.7386C197.722 88.9773 197.705 87.4261 197.375 86.0852C197.057 84.7443 196.438 83.6989 195.517 82.9489C194.608 82.1875 193.42 81.8068 191.955 81.8068C190.409 81.8068 189.068 82.2045 187.932 83C186.795 83.7841 185.869 84.8523 185.153 86.2045C184.449 87.5568 183.955 89.0682 183.67 90.7386C183.398 92.4545 183.403 93.9602 183.688 95.2557C183.983 96.5511 184.574 97.5625 185.46 98.2898C186.347 99.017 187.557 99.3807 189.091 99.3807ZM214.608 104.58C212.949 104.58 211.5 104.273 210.261 103.659C209.023 103.034 208.108 102.131 207.517 100.949C206.926 99.767 206.773 98.3182 207.057 96.6023C207.307 95.125 207.795 93.9091 208.523 92.9545C209.261 92 210.159 91.2443 211.216 90.6875C212.273 90.1193 213.42 89.6932 214.659 89.4091C215.898 89.125 217.148 88.9148 218.409 88.7784C220 88.5966 221.29 88.4432 222.278 88.3182C223.278 88.1932 224.028 88 224.528 87.7386C225.028 87.4659 225.33 87.0227 225.432 86.4091V86.2898C225.67 84.8125 225.455 83.6648 224.784 82.8466C224.125 82.017 222.977 81.6023 221.341 81.6023C219.636 81.6023 218.205 81.9773 217.045 82.7273C215.898 83.4773 215.051 84.3182 214.506 85.25L209.938 84.1591C210.756 82.5682 211.795 81.2841 213.057 80.3068C214.33 79.3182 215.722 78.6023 217.233 78.1591C218.744 77.7045 220.29 77.4773 221.869 77.4773C222.915 77.4773 224 77.6023 225.125 77.8523C226.25 78.0909 227.273 78.5341 228.193 79.1818C229.125 79.8295 229.818 80.7557 230.273 81.9602C230.727 83.1534 230.795 84.7045 230.477 86.6136L227.597 104H222.619L223.233 100.42H223.028C222.597 101.08 221.994 101.727 221.222 102.364C220.46 103 219.528 103.528 218.426 103.949C217.324 104.369 216.051 104.58 214.608 104.58ZM216.347 100.489C217.767 100.489 219.023 100.21 220.114 99.6534C221.216 99.0966 222.108 98.3693 222.79 97.4716C223.472 96.5625 223.898 95.5909 224.068 94.5568L224.631 91.1818C224.415 91.3636 224.034 91.5284 223.489 91.6761C222.955 91.8239 222.352 91.9545 221.682 92.0682C221.011 92.1818 220.352 92.2784 219.705 92.358C219.068 92.4375 218.54 92.5114 218.119 92.5795C217.119 92.7045 216.182 92.9148 215.307 93.2102C214.443 93.5057 213.722 93.9318 213.142 94.4886C212.563 95.0341 212.199 95.7614 212.051 96.6705C211.847 97.9318 212.148 98.8864 212.955 99.5341C213.773 100.17 214.903 100.489 216.347 100.489ZM234.385 104L238.749 77.8182H243.675L242.976 81.9773H243.249C243.953 80.5682 244.982 79.4602 246.334 78.6534C247.686 77.8352 249.129 77.4261 250.663 77.4261C250.993 77.4261 251.368 77.4375 251.788 77.4602C252.209 77.4716 252.55 77.5 252.811 77.5455L251.993 82.4205C251.8 82.3636 251.447 82.3011 250.936 82.233C250.425 82.1534 249.896 82.1136 249.351 82.1136C248.158 82.1136 247.05 82.3693 246.027 82.8807C245.004 83.3807 244.146 84.0795 243.453 84.9773C242.76 85.8636 242.311 86.875 242.107 88.0114L239.482 104H234.385Z" fill="#0029BC"/>
</g>
<g filter="url(#filter3_d_95_47)">
<path d="M309.5 31L279 101.5" stroke="#0029BC" stroke-width="24" stroke-linecap="round"/>
<path d="M309.5 31L279 101.5" stroke="#1B1B1B" stroke-width="24" stroke-linecap="round"/>
<path d="M309.5 31L279 101.5" stroke="black" stroke-opacity="0.2" stroke-width="24" stroke-linecap="round"/>
</g>
<defs>
<filter id="filter0_d_95_47" x="0.2" y="22.2" width="90.6009" height="90.6001" filterUnits="userSpaceOnUse" color-interpolation-filters="sRGB">
<feFlood flood-opacity="0" result="BackgroundImageFix"/>
<feColorMatrix in="SourceAlpha" type="matrix" values="0 0 0 0 0 0 0 0 0 0 0 0 0 0 0 0 0 0 127 0" result="hardAlpha"/>
<feOffset dx="2" dy="4"/>
<feGaussianBlur stdDeviation="2.4"/>
<feColorMatrix type="matrix" values="0 0 0 0 0 0 0 0 0 0 0 0 0 0 0 0 0 0 0.25 0"/>
<feBlend mode="normal" in2="BackgroundImageFix" result="effect1_dropShadow_95_47"/>
<feBlend mode="normal" in="SourceGraphic" in2="effect1_dropShadow_95_47" result="shape"/>
</filter>
<filter id="filter1_d_95_47" x="327.466" y="22.3976" width="91.2304" height="90.5852" filterUnits="userSpaceOnUse" color-interpolation-filters="sRGB">
<feFlood flood-opacity="0" result="BackgroundImageFix"/>
<feColorMatrix in="SourceAlpha" type="matrix" values="0 0 0 0 0 0 0 0 0 0 0 0 0 0 0 0 0 0 127 0" result="hardAlpha"/>
<feOffset dx="2" dy="4"/>
<feGaussianBlur stdDeviation="2.4"/>
<feColorMatrix type="matrix" values="0 0 0 0 0 0 0 0 0 0 0 0 0 0 0 0 0 0 0.25 0"/>
<feBlend mode="normal" in2="BackgroundImageFix" result="effect1_dropShadow_95_47"/>
<feBlend mode="normal" in="SourceGraphic" in2="effect1_dropShadow_95_47" result="shape"/>
</filter>
<filter id="filter2_d_95_47" x="111.853" y="10.2909" width="175.171" height="112.873" filterUnits="userSpaceOnUse" color-interpolation-filters="sRGB">
<feFlood flood-opacity="0" result="BackgroundImageFix"/>
<feColorMatrix in="SourceAlpha" type="matrix" values="0 0 0 0 0 0 0 0 0 0 0 0 0 0 0 0 0 0 127 0" result="hardAlpha"/>
<feOffset dx="2" dy="4"/>
<feGaussianBlur stdDeviation="2.4"/>
<feColorMatrix type="matrix" values="0 0 0 0 0 0 0 0 0 0 0 0 0 0 0 0 0 0 0.25 0"/>
<feBlend mode="normal" in2="BackgroundImageFix" result="effect1_dropShadow_95_47"/>
<feBlend mode="normal" in="SourceGraphic" in2="effect1_dropShadow_95_47" result="shape"/>
</filter>
<filter id="filter3_d_95_47" x="264.197" y="18.1969" width="64.1061" height="104.106" filterUnits="userSpaceOnUse" color-interpolation-filters="sRGB">
<feFlood flood-opacity="0" result="BackgroundImageFix"/>
<feColorMatrix in="SourceAlpha" type="matrix" values="0 0 0 0 0 0 0 0 0 0 0 0 0 0 0 0 0 0 127 0" result="hardAlpha"/>
<feOffset dx="2" dy="4"/>
<feGaussianBlur stdDeviation="2.4"/>
<feColorMatrix type="matrix" values="0 0 0 0 0 0 0 0 0 0 0 0 0 0 0 0 0 0 0.25 0"/>
<feBlend mode="normal" in2="BackgroundImageFix" result="effect1_dropShadow_95_47"/>
<feBlend mode="normal" in="SourceGraphic" in2="effect1_dropShadow_95_47" result="shape"/>
</filter>
</defs>
</svg>
