<svg width="426" height="124" viewBox="0 0 426 124" fill="none" xmlns="http://www.w3.org/2000/svg">
<g opacity="0.88" filter="url(#filter0_d_96_50)">
<path d="M341.723 36.3605L387.158 59.985L340.455 82.1825C337.031 83.81 335.452 88.0697 336.928 91.6973L339.601 98.2643C341.077 101.892 345.05 103.513 348.475 101.886L413.986 70.7485C415.166 70.1875 416.177 69.2815 416.899 68.1369C417.621 66.9923 418.025 65.6566 418.062 64.2866L418.274 56.5854C418.35 53.7875 416.9 51.22 414.555 50.0022L350.838 16.8723C347.497 15.1349 343.428 16.6355 341.75 20.223L338.711 26.7191C337.032 30.3067 338.38 34.6231 341.723 36.3605Z" fill="#0029BC"/>
</g>
<g opacity="0.88" filter="url(#filter1_d_96_50)">
<path d="M81.9758 39.5159L34.6323 61.6967L80.7298 85.3382C84.11 87.0716 85.4748 91.3771 83.7783 94.9554L80.7078 101.433C79.0113 105.011 74.8963 106.507 71.516 104.773L6.85254 71.6104C5.68775 71.013 4.71397 70.0761 4.04554 68.9099C3.37711 67.7436 3.0418 66.3964 3.07896 65.0264L3.29017 57.3252C3.36691 54.5273 4.97873 52.0075 7.42152 50.8642L73.8155 19.7589C77.2966 18.1277 81.3367 19.7544 82.8395 23.3915L85.5603 29.9771C87.0632 33.6142 85.459 37.8847 81.9758 39.5159Z" fill="#0029BC"/>
</g>
<g opacity="0.88" filter="url(#filter2_d_96_50)">
<path d="M110.653 46L116.449 11.0909H121.716L118.972 27.7614H119.398L136.784 11.0909H143.415L126.761 26.8068L137.67 46H131.33L122.67 30.4034L117.761 35.1591L115.92 46H110.653ZM151.413 46.5284C148.845 46.5284 146.72 45.9773 145.038 44.875C143.368 43.7614 142.197 42.1989 141.527 40.1875C140.857 38.1648 140.749 35.7955 141.203 33.0795C141.646 30.3977 142.538 28.0341 143.879 25.9886C145.22 23.9432 146.891 22.3466 148.891 21.1989C150.902 20.0511 153.124 19.4773 155.555 19.4773C157.033 19.4773 158.425 19.7216 159.732 20.2102C161.05 20.6989 162.169 21.4659 163.089 22.5114C164.01 23.5568 164.646 24.9148 164.999 26.5852C165.362 28.2443 165.351 30.2614 164.964 32.6364L164.675 34.4432H143.845L144.442 30.625H160.26C160.499 29.2841 160.436 28.0966 160.072 27.0625C159.709 26.017 159.084 25.1932 158.197 24.5909C157.322 23.9886 156.22 23.6875 154.891 23.6875C153.527 23.6875 152.254 24.0455 151.072 24.7614C149.891 25.4773 148.902 26.392 148.107 27.5057C147.322 28.608 146.828 29.7443 146.624 30.9148L146.027 34.4091C145.732 36.3182 145.783 37.8523 146.18 39.0114C146.589 40.1705 147.305 41.0114 148.328 41.5341C149.351 42.0568 150.629 42.3182 152.163 42.3182C153.152 42.3182 154.067 42.1818 154.908 41.9091C155.76 41.625 156.516 41.2102 157.175 40.6648C157.834 40.108 158.385 39.4148 158.828 38.5852L163.499 39.4545C162.874 40.875 161.976 42.1193 160.805 43.1875C159.635 44.2443 158.254 45.0682 156.663 45.6591C155.084 46.2386 153.334 46.5284 151.413 46.5284ZM191.389 26.2102L186.634 27.0284C186.531 26.4261 186.321 25.858 186.003 25.3239C185.696 24.7898 185.224 24.358 184.588 24.0284C183.952 23.6875 183.105 23.517 182.048 23.517C180.582 23.517 179.298 23.8523 178.196 24.5227C177.105 25.1932 176.48 26.0455 176.321 27.0795C176.173 27.9205 176.372 28.6023 176.918 29.125C177.463 29.6364 178.423 30.0625 179.798 30.4034L183.821 31.358C186.139 31.9148 187.798 32.7841 188.798 33.9659C189.81 35.1364 190.162 36.6591 189.855 38.5341C189.594 40.0909 188.912 41.4716 187.81 42.6761C186.719 43.8807 185.321 44.8239 183.616 45.5057C181.912 46.1875 180.014 46.5284 177.923 46.5284C174.946 46.5284 172.628 45.8977 170.969 44.6364C169.31 43.375 168.457 41.5909 168.412 39.2841L173.457 38.5341C173.548 39.8182 174.009 40.7898 174.838 41.4489C175.679 42.0966 176.844 42.4205 178.332 42.4205C180.037 42.4318 181.463 42.0739 182.611 41.3466C183.759 40.6193 184.412 39.7386 184.571 38.7045C184.707 37.8977 184.526 37.2273 184.026 36.6932C183.537 36.1591 182.673 35.75 181.435 35.4659L177.207 34.4943C174.844 33.9375 173.173 33.0398 172.196 31.8011C171.219 30.5625 170.889 29.0057 171.207 27.1307C171.457 25.5966 172.105 24.2614 173.151 23.125C174.207 21.9773 175.543 21.0852 177.156 20.4489C178.77 19.8011 180.554 19.4773 182.509 19.4773C185.361 19.4773 187.503 20.0909 188.935 21.3182C190.366 22.5341 191.185 24.1648 191.389 26.2102ZM201.868 30.4545L199.311 46H194.214L200.01 11.0909H205.038L202.891 24.0795H203.214C204.044 22.6591 205.158 21.5398 206.555 20.7216C207.964 19.892 209.692 19.4773 211.737 19.4773C213.533 19.4773 215.038 19.8466 216.254 20.5852C217.482 21.3239 218.345 22.4261 218.845 23.892C219.357 25.3466 219.436 27.1648 219.084 29.3466L216.288 46H211.192L213.851 29.9602C214.169 28.0398 213.919 26.5511 213.101 25.4943C212.283 24.4261 211.004 23.892 209.266 23.892C208.05 23.892 206.925 24.1477 205.891 24.6591C204.868 25.1705 204.004 25.9205 203.3 26.9091C202.595 27.8864 202.118 29.0682 201.868 30.4545ZM230.624 46.5795C228.964 46.5795 227.516 46.2727 226.277 45.6591C225.038 45.0341 224.124 44.1307 223.533 42.9489C222.942 41.767 222.788 40.3182 223.072 38.6023C223.322 37.125 223.811 35.9091 224.538 34.9545C225.277 34 226.175 33.2443 227.232 32.6875C228.288 32.1193 229.436 31.6932 230.675 31.4091C231.913 31.125 233.163 30.9148 234.425 30.7784C236.016 30.5966 237.305 30.4432 238.294 30.3182C239.294 30.1932 240.044 30 240.544 29.7386C241.044 29.4659 241.345 29.0227 241.447 28.4091V28.2898C241.686 26.8125 241.47 25.6648 240.8 24.8466C240.141 24.017 238.993 23.6023 237.357 23.6023C235.652 23.6023 234.22 23.9773 233.061 24.7273C231.913 25.4773 231.067 26.3182 230.521 27.25L225.953 26.1591C226.771 24.5682 227.811 23.2841 229.072 22.3068C230.345 21.3182 231.737 20.6023 233.249 20.1591C234.76 19.7045 236.305 19.4773 237.885 19.4773C238.93 19.4773 240.016 19.6023 241.141 19.8523C242.266 20.0909 243.288 20.5341 244.209 21.1818C245.141 21.8295 245.834 22.7557 246.288 23.9602C246.743 25.1534 246.811 26.7045 246.493 28.6136L243.612 46H238.635L239.249 42.4205H239.044C238.612 43.0795 238.01 43.7273 237.237 44.3636C236.476 45 235.544 45.5284 234.442 45.9489C233.339 46.3693 232.067 46.5795 230.624 46.5795ZM232.362 42.4886C233.783 42.4886 235.038 42.2102 236.129 41.6534C237.232 41.0966 238.124 40.3693 238.805 39.4716C239.487 38.5625 239.913 37.5909 240.084 36.5568L240.646 33.1818C240.43 33.3636 240.05 33.5284 239.504 33.6761C238.97 33.8239 238.368 33.9545 237.697 34.0682C237.027 34.1818 236.368 34.2784 235.72 34.358C235.084 34.4375 234.555 34.5114 234.135 34.5795C233.135 34.7045 232.197 34.9148 231.322 35.2102C230.459 35.5057 229.737 35.9318 229.158 36.4886C228.578 37.0341 228.214 37.7614 228.067 38.6705C227.862 39.9318 228.163 40.8864 228.97 41.5341C229.788 42.1705 230.919 42.4886 232.362 42.4886ZM276.224 19.8182L262.366 46H256.912L251.764 19.8182H257.031L260.304 39.9659H260.577L270.548 19.8182H276.224ZM144.625 69.0909L138.83 104H133.989L120.506 78.3977H120.199L115.92 104H110.653L116.449 69.0909H121.324L134.824 94.7273H135.148L139.409 69.0909H144.625ZM153.655 104.58C151.996 104.58 150.547 104.273 149.308 103.659C148.07 103.034 147.155 102.131 146.564 100.949C145.973 99.767 145.82 98.3182 146.104 96.6023C146.354 95.125 146.842 93.9091 147.57 92.9545C148.308 92 149.206 91.2443 150.263 90.6875C151.32 90.1193 152.467 89.6932 153.706 89.4091C154.945 89.125 156.195 88.9148 157.456 88.7784C159.047 88.5966 160.337 88.4432 161.325 88.3182C162.325 88.1932 163.075 88 163.575 87.7386C164.075 87.4659 164.376 87.0227 164.479 86.4091V86.2898C164.717 84.8125 164.501 83.6648 163.831 82.8466C163.172 82.017 162.024 81.6023 160.388 81.6023C158.683 81.6023 157.251 81.9773 156.092 82.7273C154.945 83.4773 154.098 84.3182 153.553 85.25L148.984 84.1591C149.803 82.5682 150.842 81.2841 152.104 80.3068C153.376 79.3182 154.768 78.6023 156.28 78.1591C157.791 77.7045 159.337 77.4773 160.916 77.4773C161.962 77.4773 163.047 77.6023 164.172 77.8523C165.297 78.0909 166.32 78.5341 167.24 79.1818C168.172 79.8295 168.865 80.7557 169.32 81.9602C169.774 83.1534 169.842 84.7045 169.524 86.6136L166.643 104H161.666L162.28 100.42H162.075C161.643 101.08 161.041 101.727 160.268 102.364C159.507 103 158.575 103.528 157.473 103.949C156.371 104.369 155.098 104.58 153.655 104.58ZM155.393 100.489C156.814 100.489 158.07 100.21 159.161 99.6534C160.263 99.0966 161.155 98.3693 161.837 97.4716C162.518 96.5625 162.945 95.5909 163.115 94.5568L163.678 91.1818C163.462 91.3636 163.081 91.5284 162.536 91.6761C162.001 91.8239 161.399 91.9545 160.729 92.0682C160.058 92.1818 159.399 92.2784 158.751 92.358C158.115 92.4375 157.587 92.5114 157.166 92.5795C156.166 92.7045 155.229 92.9148 154.354 93.2102C153.49 93.5057 152.768 93.9318 152.189 94.4886C151.609 95.0341 151.246 95.7614 151.098 96.6705C150.893 97.9318 151.195 98.8864 152.001 99.5341C152.82 100.17 153.95 100.489 155.393 100.489ZM182.773 114.364C180.682 114.364 178.932 114.091 177.523 113.545C176.125 113 175.023 112.278 174.216 111.381C173.42 110.483 172.869 109.5 172.562 108.432L177.267 106.625C177.494 107.125 177.813 107.653 178.222 108.21C178.631 108.778 179.239 109.261 180.045 109.659C180.864 110.057 181.983 110.256 183.403 110.256C185.335 110.256 187.023 109.784 188.466 108.841C189.909 107.909 190.801 106.42 191.142 104.375L191.943 99.2273H191.619C191.233 99.7841 190.699 100.403 190.017 101.085C189.335 101.767 188.455 102.358 187.375 102.858C186.295 103.358 184.955 103.608 183.352 103.608C181.284 103.608 179.5 103.125 178 102.159C176.511 101.182 175.443 99.7443 174.795 97.8466C174.148 95.9375 174.057 93.5909 174.523 90.8068C174.977 88.0227 175.841 85.6364 177.114 83.6477C178.398 81.6591 179.955 80.1364 181.784 79.0795C183.625 78.0114 185.597 77.4773 187.699 77.4773C189.324 77.4773 190.591 77.75 191.5 78.2955C192.42 78.8295 193.102 79.4545 193.545 80.1705C193.989 80.8864 194.313 81.517 194.517 82.0625H194.892L195.591 77.8182H200.585L196.153 104.58C195.79 106.83 194.966 108.676 193.682 110.119C192.409 111.563 190.824 112.631 188.926 113.324C187.04 114.017 184.989 114.364 182.773 114.364ZM185.091 99.3807C186.545 99.3807 187.841 99.0398 188.977 98.358C190.125 97.6648 191.08 96.6761 191.841 95.392C192.602 94.0966 193.131 92.5455 193.426 90.7386C193.722 88.9773 193.705 87.4261 193.375 86.0852C193.057 84.7443 192.438 83.6989 191.517 82.9489C190.608 82.1875 189.42 81.8068 187.955 81.8068C186.409 81.8068 185.068 82.2045 183.932 83C182.795 83.7841 181.869 84.8523 181.153 86.2045C180.449 87.5568 179.955 89.0682 179.67 90.7386C179.398 92.4545 179.403 93.9602 179.688 95.2557C179.983 96.5511 180.574 97.5625 181.46 98.2898C182.347 99.017 183.557 99.3807 185.091 99.3807ZM210.608 104.58C208.949 104.58 207.5 104.273 206.261 103.659C205.023 103.034 204.108 102.131 203.517 100.949C202.926 99.767 202.773 98.3182 203.057 96.6023C203.307 95.125 203.795 93.9091 204.523 92.9545C205.261 92 206.159 91.2443 207.216 90.6875C208.273 90.1193 209.42 89.6932 210.659 89.4091C211.898 89.125 213.148 88.9148 214.409 88.7784C216 88.5966 217.29 88.4432 218.278 88.3182C219.278 88.1932 220.028 88 220.528 87.7386C221.028 87.4659 221.33 87.0227 221.432 86.4091V86.2898C221.67 84.8125 221.455 83.6648 220.784 82.8466C220.125 82.017 218.977 81.6023 217.341 81.6023C215.636 81.6023 214.205 81.9773 213.045 82.7273C211.898 83.4773 211.051 84.3182 210.506 85.25L205.938 84.1591C206.756 82.5682 207.795 81.2841 209.057 80.3068C210.33 79.3182 211.722 78.6023 213.233 78.1591C214.744 77.7045 216.29 77.4773 217.869 77.4773C218.915 77.4773 220 77.6023 221.125 77.8523C222.25 78.0909 223.273 78.5341 224.193 79.1818C225.125 79.8295 225.818 80.7557 226.273 81.9602C226.727 83.1534 226.795 84.7045 226.477 86.6136L223.597 104H218.619L219.233 100.42H219.028C218.597 101.08 217.994 101.727 217.222 102.364C216.46 103 215.528 103.528 214.426 103.949C213.324 104.369 212.051 104.58 210.608 104.58ZM212.347 100.489C213.767 100.489 215.023 100.21 216.114 99.6534C217.216 99.0966 218.108 98.3693 218.79 97.4716C219.472 96.5625 219.898 95.5909 220.068 94.5568L220.631 91.1818C220.415 91.3636 220.034 91.5284 219.489 91.6761C218.955 91.8239 218.352 91.9545 217.682 92.0682C217.011 92.1818 216.352 92.2784 215.705 92.358C215.068 92.4375 214.54 92.5114 214.119 92.5795C213.119 92.7045 212.182 92.9148 211.307 93.2102C210.443 93.5057 209.722 93.9318 209.142 94.4886C208.563 95.0341 208.199 95.7614 208.051 96.6705C207.847 97.9318 208.148 98.8864 208.955 99.5341C209.773 100.17 210.903 100.489 212.347 100.489ZM230.385 104L234.749 77.8182H239.675L238.976 81.9773H239.249C239.953 80.5682 240.982 79.4602 242.334 78.6534C243.686 77.8352 245.129 77.4261 246.663 77.4261C246.993 77.4261 247.368 77.4375 247.788 77.4602C248.209 77.4716 248.55 77.5 248.811 77.5455L247.993 82.4205C247.8 82.3636 247.447 82.3011 246.936 82.233C246.425 82.1534 245.896 82.1136 245.351 82.1136C244.158 82.1136 243.05 82.3693 242.027 82.8807C241.004 83.3807 240.146 84.0795 239.453 84.9773C238.76 85.8636 238.311 86.875 238.107 88.0114L235.482 104H230.385Z" fill="#0029BC"/>
</g>
<g filter="url(#filter3_d_96_50)">
<path d="M312.5 30L282 89.1821" stroke="#0029BC" stroke-width="24" stroke-linecap="round"/>
<path d="M312.5 30L282 89.1821" stroke="#1B1B1B" stroke-width="24" stroke-linecap="round"/>
<path d="M312.5 30L282 89.1821" stroke="black" stroke-opacity="0.2" stroke-width="24" stroke-linecap="round"/>
</g>
<defs>
<filter id="filter0_d_96_50" x="333.575" y="15.3492" width="91.5017" height="95.969" filterUnits="userSpaceOnUse" color-interpolation-filters="sRGB">
<feFlood flood-opacity="0" result="BackgroundImageFix"/>
<feColorMatrix in="SourceAlpha" type="matrix" values="0 0 0 0 0 0 0 0 0 0 0 0 0 0 0 0 0 0 127 0" result="hardAlpha"/>
<feOffset dx="2" dy="4"/>
<feGaussianBlur stdDeviation="2.4"/>
<feColorMatrix type="matrix" values="0 0 0 0 0 0 0 0 0 0 0 0 0 0 0 0 0 0 0.25 0"/>
<feBlend mode="normal" in2="BackgroundImageFix" result="effect1_dropShadow_96_50"/>
<feBlend mode="normal" in="SourceGraphic" in2="effect1_dropShadow_96_50" result="shape"/>
</filter>
<filter id="filter1_d_96_50" x="0.276172" y="18.3252" width="92.6481" height="95.9698" filterUnits="userSpaceOnUse" color-interpolation-filters="sRGB">
<feFlood flood-opacity="0" result="BackgroundImageFix"/>
<feColorMatrix in="SourceAlpha" type="matrix" values="0 0 0 0 0 0 0 0 0 0 0 0 0 0 0 0 0 0 127 0" result="hardAlpha"/>
<feOffset dx="2" dy="4"/>
<feGaussianBlur stdDeviation="2.4"/>
<feColorMatrix type="matrix" values="0 0 0 0 0 0 0 0 0 0 0 0 0 0 0 0 0 0 0.25 0"/>
<feBlend mode="normal" in2="BackgroundImageFix" result="effect1_dropShadow_96_50"/>
<feBlend mode="normal" in="SourceGraphic" in2="effect1_dropShadow_96_50" result="shape"/>
</filter>
<filter id="filter2_d_96_50" x="107.853" y="10.2909" width="175.171" height="112.873" filterUnits="userSpaceOnUse" color-interpolation-filters="sRGB">
<feFlood flood-opacity="0" result="BackgroundImageFix"/>
<feColorMatrix in="SourceAlpha" type="matrix" values="0 0 0 0 0 0 0 0 0 0 0 0 0 0 0 0 0 0 127 0" result="hardAlpha"/>
<feOffset dx="2" dy="4"/>
<feGaussianBlur stdDeviation="2.4"/>
<feColorMatrix type="matrix" values="0 0 0 0 0 0 0 0 0 0 0 0 0 0 0 0 0 0 0.25 0"/>
<feBlend mode="normal" in2="BackgroundImageFix" result="effect1_dropShadow_96_50"/>
<feBlend mode="normal" in="SourceGraphic" in2="effect1_dropShadow_96_50" result="shape"/>
</filter>
<filter id="filter3_d_96_50" x="267.197" y="17.1975" width="64.1051" height="92.7871" filterUnits="userSpaceOnUse" color-interpolation-filters="sRGB">
<feFlood flood-opacity="0" result="BackgroundImageFix"/>
<feColorMatrix in="SourceAlpha" type="matrix" values="0 0 0 0 0 0 0 0 0 0 0 0 0 0 0 0 0 0 127 0" result="hardAlpha"/>
<feOffset dx="2" dy="4"/>
<feGaussianBlur stdDeviation="2.4"/>
<feColorMatrix type="matrix" values="0 0 0 0 0 0 0 0 0 0 0 0 0 0 0 0 0 0 0.25 0"/>
<feBlend mode="normal" in2="BackgroundImageFix" result="effect1_dropShadow_96_50"/>
<feBlend mode="normal" in="SourceGraphic" in2="effect1_dropShadow_96_50" result="shape"/>
</filter>
</defs>
</svg>
